<svg width="605" height="169" viewBox="0 0 605 169" fill="none" xmlns="http://www.w3.org/2000/svg">
<path d="M167 77.2273V7.75615H180.577L186.425 43.7677L186.92 47.454H187.118L187.614 43.7677L193.461 7.75615H207.038V77.2273H197.128V30.6296H196.533L196.137 33.5597L189.794 77.2273H184.244L177.902 33.5597L177.505 30.6296H176.911V77.2273H167Z" fill="#5DBBFF"/>
<path d="M224.914 77.2273V7.75615H249.393V18.2477H235.618V36.9624H245.528V47.1704H235.618V66.7358H249.393V77.2273H224.914Z" fill="#5DBBFF"/>
<path d="M281.023 77.9835C277.983 77.9835 275.39 77.3376 273.243 76.0458C271.129 74.7226 269.51 72.9267 268.387 70.6583C267.297 68.3898 266.752 65.8221 266.752 62.955V22.0285C266.752 19.1929 267.313 16.6409 268.436 14.3725C269.593 12.104 271.244 10.3081 273.392 8.98489C275.539 7.66163 278.083 7 281.023 7C283.236 7 285.218 7.39383 286.969 8.18148C288.72 8.96914 290.206 10.0561 291.429 11.4424C292.684 12.7971 293.642 14.3882 294.303 16.2156C294.963 18.0114 295.294 19.949 295.294 22.0285V31.5748H285.284V22.0285C285.284 20.5792 284.97 19.3662 284.343 18.3895C283.715 17.4128 282.674 16.9245 281.221 16.9245C279.899 16.9245 278.941 17.4286 278.347 18.4367C277.752 19.445 277.455 20.6422 277.455 22.0285V62.955C277.455 64.3413 277.769 65.5385 278.396 66.5467C279.057 67.5549 279.999 68.059 281.221 68.059C282.707 68.059 283.748 67.5707 284.343 66.594C284.97 65.6173 285.284 64.4043 285.284 62.955V53.4086H295.294V62.955C295.294 65.7906 294.716 68.3426 293.559 70.611C292.403 72.8795 290.751 74.6753 288.604 75.9986C286.49 77.3218 283.963 77.9835 281.023 77.9835Z" fill="#5DBBFF"/>
<path d="M312.677 77.2273V7.75615H323.38V36.4898H331.705V7.75615H342.408V77.2273H331.705V46.9814H323.38V77.2273H312.677Z" fill="#5DBBFF"/>
<path d="M358.006 77.2273L369.006 7.75615H382.088L393.089 77.2273H382.683L380.701 63.0495H370.394L368.412 77.2273H358.006ZM371.88 52.2744H379.214L376.142 28.9283L375.844 25.2421H375.25L374.953 28.9283L371.88 52.2744Z" fill="#5DBBFF"/>
<path d="M408.665 77.2273V7.75615H418.675L428.585 43.9568L429.477 47.1704H430.072V7.75615H439.883V77.2273H430.865L419.963 41.0267L419.071 37.8131H418.477V77.2273H408.665Z" fill="#5DBBFF"/>
<path d="M457.676 77.2273V7.75615H468.379V77.2273H457.676Z" fill="#5DBBFF"/>
<path d="M500.041 77.9835C497.002 77.9835 494.408 77.3376 492.261 76.0458C490.147 74.7226 488.528 72.9267 487.405 70.6583C486.315 68.3898 485.77 65.8221 485.77 62.955V22.0285C485.77 19.1929 486.331 16.6409 487.454 14.3725C488.611 12.104 490.262 10.3081 492.41 8.98489C494.557 7.66163 497.101 7 500.041 7C502.254 7 504.236 7.39383 505.987 8.18148C507.738 8.96914 509.225 10.0561 510.447 11.4424C511.702 12.7971 512.66 14.3882 513.321 16.2156C513.982 18.0114 514.312 19.949 514.312 22.0285V31.5748H504.302V22.0285C504.302 20.5792 503.989 19.3662 503.361 18.3895C502.733 17.4128 501.693 16.9245 500.239 16.9245C498.918 16.9245 497.96 17.4286 497.365 18.4367C496.77 19.445 496.473 20.6422 496.473 22.0285V62.955C496.473 64.3413 496.787 65.5385 497.415 66.5467C498.075 67.5549 499.017 68.059 500.239 68.059C501.726 68.059 502.766 67.5707 503.361 66.594C503.989 65.6173 504.302 64.4043 504.302 62.955V53.4086H514.312V62.955C514.312 65.7906 513.734 68.3426 512.578 70.611C511.421 72.8795 509.77 74.6753 507.622 75.9986C505.508 77.3218 502.981 77.9835 500.041 77.9835Z" fill="#5DBBFF"/>
<path d="M529.465 77.2273L540.466 7.75615H553.547L564.548 77.2273H554.142L552.16 63.0495H541.853L539.871 77.2273H529.465ZM543.34 52.2744H550.673L547.601 28.9283L547.304 25.2421H546.709L546.412 28.9283L543.34 52.2744Z" fill="#5DBBFF"/>
<path d="M580.125 77.2273V7.75615H590.828V67.7755H605V77.2273H580.125Z" fill="#5DBBFF"/>
<path d="M185.905 162C182.866 162 180.273 161.354 178.125 160.062C176.011 158.739 174.392 156.943 173.269 154.675C172.179 152.406 171.634 149.839 171.634 146.972V106.045C171.634 103.209 172.196 100.657 173.319 98.389C174.475 96.1205 176.127 94.3247 178.274 93.0014C180.421 91.6782 182.965 91.0165 185.905 91.0165C188.118 91.0165 190.101 91.4104 191.851 92.198C193.602 92.9857 195.089 94.0726 196.311 95.4589C197.566 96.8137 198.524 98.4047 199.185 100.232C199.846 102.028 200.176 103.966 200.176 106.045V115.591H190.167V106.045C190.167 104.596 189.853 103.383 189.225 102.406C188.597 101.429 187.557 100.941 186.103 100.941C184.782 100.941 183.824 101.445 183.229 102.453C182.635 103.461 182.337 104.659 182.337 106.045V146.972C182.337 148.358 182.651 149.555 183.279 150.563C183.939 151.571 184.881 152.076 186.103 152.076C187.59 152.076 188.63 151.587 189.225 150.611C189.853 149.634 190.167 148.421 190.167 146.972V137.425H200.176V146.972C200.176 149.807 199.598 152.359 198.442 154.628C197.286 156.896 195.634 158.692 193.487 160.015C191.372 161.338 188.845 162 185.905 162Z" fill="#FB8A0F"/>
<path d="M215.329 161.244L226.33 91.7727H239.412L250.412 161.244H240.006L238.024 147.066H227.717L225.735 161.244H215.329ZM229.204 136.291H236.538L233.465 112.945L233.168 109.259H232.573L232.276 112.945L229.204 136.291Z" fill="#FB8A0F"/>
<path d="M265.989 161.244V91.7727H276.692V151.792H290.864V161.244H265.989Z" fill="#FB8A0F"/>
<path d="M318.903 162C315.864 162 313.271 161.354 311.123 160.062C309.009 158.739 307.39 156.943 306.267 154.675C305.177 152.406 304.632 149.839 304.632 146.972V106.045C304.632 103.209 305.194 100.657 306.317 98.389C307.473 96.1205 309.125 94.3247 311.272 93.0014C313.419 91.6782 315.963 91.0165 318.903 91.0165C321.117 91.0165 323.099 91.4104 324.849 92.198C326.6 92.9857 328.087 94.0726 329.309 95.4589C330.565 96.8137 331.523 98.4047 332.183 100.232C332.844 102.028 333.174 103.966 333.174 106.045V115.591H323.165V106.045C323.165 104.596 322.851 103.383 322.223 102.406C321.596 101.429 320.555 100.941 319.101 100.941C317.78 100.941 316.822 101.445 316.227 102.453C315.633 103.461 315.335 104.659 315.335 106.045V146.972C315.335 148.358 315.649 149.555 316.277 150.563C316.938 151.571 317.879 152.076 319.101 152.076C320.588 152.076 321.629 151.587 322.223 150.611C322.851 149.634 323.165 148.421 323.165 146.972V137.425H333.174V146.972C333.174 149.807 332.596 152.359 331.44 154.628C330.284 156.896 328.632 158.692 326.485 160.015C324.37 161.338 321.843 162 318.903 162Z" fill="#FB8A0F"/>
<path d="M364.828 162C361.822 162 359.245 161.338 357.098 160.015C354.984 158.692 353.365 156.896 352.242 154.628C351.119 152.359 350.557 149.807 350.557 146.972V91.7727H361.261V146.972C361.261 148.326 361.541 149.524 362.103 150.563C362.665 151.571 363.573 152.076 364.828 152.076C366.15 152.076 367.075 151.571 367.603 150.563C368.132 149.524 368.396 148.326 368.396 146.972V91.7727H379.099V146.972C379.099 149.807 378.521 152.359 377.365 154.628C376.242 156.896 374.607 158.692 372.459 160.015C370.345 161.338 367.801 162 364.828 162Z" fill="#FB8A0F"/>
<path d="M396.955 161.244V91.7727H407.658V151.792H421.83V161.244H396.955Z" fill="#FB8A0F"/>
<path d="M434.831 161.244L445.832 91.7727H458.914L469.914 161.244H459.508L457.526 147.066H447.219L445.237 161.244H434.831ZM448.706 136.291H456.04L452.967 112.945L452.67 109.259H452.076L451.778 112.945L448.706 136.291Z" fill="#FB8A0F"/>
<path d="M487.691 161.244V102.264H477.582V91.7727H508.503V102.264H498.394V161.244H487.691Z" fill="#FB8A0F"/>
<path d="M537.147 162C534.174 162 531.614 161.338 529.467 160.015C527.352 158.692 525.717 156.896 524.561 154.628C523.438 152.359 522.876 149.807 522.876 146.972V106.045C522.876 103.178 523.438 100.626 524.561 98.389C525.717 96.1205 527.352 94.3247 529.467 93.0014C531.614 91.6782 534.174 91.0165 537.147 91.0165C540.12 91.0165 542.664 91.6782 544.778 93.0014C546.926 94.3247 548.561 96.1205 549.684 98.389C550.84 100.657 551.418 103.209 551.418 106.045V146.972C551.418 149.807 550.84 152.359 549.684 154.628C548.561 156.896 546.926 158.692 544.778 160.015C542.664 161.338 540.12 162 537.147 162ZM537.147 152.076C538.469 152.076 539.394 151.556 539.922 150.516C540.451 149.445 540.715 148.263 540.715 146.972V106.045C540.715 104.753 540.434 103.588 539.873 102.548C539.311 101.477 538.403 100.941 537.147 100.941C535.925 100.941 535.016 101.477 534.422 102.548C533.86 103.588 533.579 104.753 533.579 106.045V146.972C533.579 148.263 533.86 149.445 534.422 150.516C534.983 151.556 535.892 152.076 537.147 152.076Z" fill="#FB8A0F"/>
<path d="M568.801 161.244V91.7727H579.504C585.913 91.7727 590.637 93.474 593.676 96.8767C596.716 100.248 598.235 105.226 598.235 111.811C598.235 115.717 597.509 119.104 596.055 121.971C594.634 124.807 592.9 126.886 590.852 128.21L598.136 161.244H587.433L581.387 131.943H579.504V161.244H568.801ZM579.504 122.491C581.487 122.491 583.056 122.082 584.212 121.262C585.368 120.412 586.194 119.215 586.69 117.671C587.185 116.127 587.433 114.3 587.433 112.189C587.433 108.881 586.855 106.344 585.699 104.58C584.575 102.784 582.511 101.886 579.504 101.886V122.491Z" fill="#FB8A0F"/>
<path d="M15.5662 147.097V125.324H33.8276L51.7498 102.187L54.4037 94.2203H57.9215L65.1488 84.8892H54.4037V63.1164H79.2112L76.5573 70.1599L90.3455 52.3617H18.2613C13.9179 52.3617 10.3971 49.2721 10.3971 45.4603V20.3818C10.3971 16.57 13.9179 13.4803 18.2613 13.4803H115.059C117.518 13.4803 117.034 14.4925 118.476 16.0432L130.902 0H0.0619226V168.997H0L16.9639 147.094H15.5662V147.097ZM15.5662 63.1134H40.3737V84.8862H15.5662V63.1134ZM15.5662 94.2203H40.3737V115.993H15.5662V94.2203Z" fill="#5DBBFF"/>
<path d="M9.098 169H140V0L9.098 169ZM113.636 140.776H56.6371L113.636 67.1886V140.776Z" fill="#FB8A0F"/>
</svg>
